<?xml version="1.0" encoding="utf-8"?>
<!-- Generator: Adobe Illustrator 19.2.0, SVG Export Plug-In . SVG Version: 6.00 Build 0)  -->
<svg version="1.1" id="filesettings" xmlns="http://www.w3.org/2000/svg" xmlns:xlink="http://www.w3.org/1999/xlink" x="0px"
	 y="0px" viewBox="0 0 196 208" enable-background="new 0 0 196 208" xml:space="preserve">
<g>
	<path fill="none" d="M64,104c0-4.412-3.5901-8-8-8c-4.4101,0-8,3.588-8,8s3.5899,8,8,8C60.4099,112,64,108.412,64,104z"/>
	<path fill="none" d="M52,148.0116C52,150.2108,53.7927,152,56,152c2.2419,0,4-1.752,4-3.9884v-4.8124
		c0-1.9024,1.34-3.5428,3.2071-3.92c4.5232-0.918,8.7772-2.6816,12.6444-5.24c1.578-1.0488,3.6836-0.838,5.0352,0.5036l3.406,3.4044
		c1.5588,1.5588,4.09,1.5488,5.6488-0.0056c0.7616-0.764,1.1836-1.7696,1.1796-2.8324c0-1.0604-0.414-2.0604-1.172-2.8144
		l-3.4064-3.408c-1.3436-1.3456-1.5584-3.4512-0.5076-5.0372c2.5624-3.8672,4.328-8.1212,5.242-12.6444
		C91.6563,109.34,93.2967,108,95.1991,108h4.8124c2.1992,0,3.9885-1.7948,3.9885-4s-1.7893-4-3.9885-4h-4.8124
		c-1.9024,0-3.5428-1.34-3.922-3.2052c-0.914-4.5232-2.6796-8.7772-5.242-12.6444c-1.0508-1.586-0.836-3.6916,0.5076-5.0372
		l3.4064-3.406c1.5549-1.5548,1.5509-4.09-0.0076-5.6488c-0.762-0.7636-1.766-1.1816-2.8284-1.1816c-0.004,0-0.004,0-0.004,0
		c-1.0584,0-2.0584,0.416-2.8124,1.172l-3.41,3.4084c-1.3516,1.3456-3.4572,1.5524-5.0352,0.5036
		c-3.8672-2.5584-8.1212-4.322-12.6444-5.24C61.34,68.3436,60,66.7032,60,64.8008v-4.8124C60,57.7892,58.2071,56,56,56
		c-2.2421,0-4,1.752-4,3.9884v4.8124c0,1.9024-1.34,3.5428-3.2073,3.92c-4.5232,0.918-8.7772,2.6816-12.6444,5.24
		c-1.578,1.0488-3.6876,0.842-5.0352-0.5036l-3.406-3.4044c-1.5628-1.5624-4.094-1.5528-5.6488,0.0056
		c-0.7616,0.764-1.1832,1.7696-1.1796,2.8324c0,1.0604,0.414,2.0604,1.172,2.8144l3.4024,3.41
		c1.3436,1.3436,1.5549,3.4492,0.5076,5.0332c-2.5584,3.8692-4.324,8.1252-5.238,12.6464C20.3435,98.66,18.7031,100,16.8007,100
		h-4.8124C9.7891,100,8,101.7948,8,104s1.7891,4,3.9883,4h4.8124c1.9024,0,3.5428,1.34,3.922,3.2052
		c0.914,4.5212,2.6796,8.7772,5.238,12.6464c1.0473,1.584,0.836,3.6896-0.5076,5.0332l-3.4024,3.4064
		c-1.5547,1.5564-1.5507,4.0916,0.0076,5.6504c0.762,0.7636,1.766,1.1816,2.8284,1.1816c0,0,0,0,0.004,0
		c1.0584,0,2.0584-0.418,2.8164-1.174l3.406-3.4064c0.7736-0.7712,1.7968-1.1696,2.8284-1.1696c0.7656,0,1.5348,0.2184,2.2068,0.666
		c3.8672,2.5584,8.1212,4.322,12.6444,5.24C50.66,139.6564,52,141.2968,52,143.1992V148.0116z M40,104c0-8.8224,7.1755-16,16-16
		c8.8243,0,16,7.1776,16,16s-7.1757,16-16,16C47.1755,120,40,112.8224,40,104z"/>
	<path fill="none" d="M184,8H64c-2.2073,0-4,1.8556-4,4.1348v36.6016c4.6459,1.6544,8,6.0488,8,11.252v1.668
		c3.2967,0.9296,6.4607,2.242,9.4531,3.9196l1.1836-1.1836c2.2616-2.2636,5.2696-3.5136,8.4688-3.5156c0,0,0.0036,0,0.0076,0
		c3.1992,0,6.2112,1.252,8.4844,3.5256c4.6796,4.6776,4.6836,12.2872,0.008,16.9608l-1.1836,1.1816
		c1.6796,2.9964,2.992,6.1584,3.9216,9.4552h1.668C106.6211,92,112,97.3828,112,104s-5.3789,12-11.9885,12h-1.668
		c-0.9296,3.2968-2.242,6.4588-3.9216,9.4552l1.1836,1.1816c2.2656,2.2636,3.5156,5.2716,3.5156,8.4688
		c0.004,3.1992-1.25,6.2168-3.5236,8.492c-4.6756,4.676-12.2852,4.6836-16.9608,0.008l-1.1836-1.1816
		c-2.9924,1.6776-6.1564,2.99-9.4531,3.9196v1.668c0,5.2032-3.3541,9.5976-8,11.252v36.5468C60,198.1212,61.7927,200,64,200h120
		c2.2071,0,4-1.8612,4-4.1504V12.1504C188,9.8612,186.2071,8,184,8z M178.1327,188H72v-8h106.1327V188z M178.1327,156H104v-8
		h74.1327V156z M178.1327,124H128v-8h50.1327V124z M178.1327,92H128v-8h50.1327V92z M178.1327,60H104v-8h74.1327V60z M178.1327,28
		H72v-8h106.1327V28z"/>
	<path d="M72,104c0-8.8224-7.1757-16-16-16c-8.8245,0-16,7.1776-16,16s7.1755,16,16,16C64.8243,120,72,112.8224,72,104z M48,104
		c0-4.412,3.5899-8,8-8c4.4099,0,8,3.588,8,8s-3.5901,8-8,8C51.5899,112,48,108.412,48,104z"/>
	<path d="M184,0H64c-6.6173,0-12,5.4432-12,12.1348v36.6016c-4.6461,1.6548-8,6.0488-8,11.252v1.668
		c-3.2969,0.9296-6.4609,2.242-9.4533,3.9196l-1.1836-1.1816c-4.6756-4.6756-12.2852-4.668-16.9608,0.008
		c-2.2736,2.2752-3.5272,5.2928-3.5236,8.492c0,3.1972,1.25,6.2052,3.5156,8.4668l1.18,1.1836
		c-1.676,2.9964-2.9884,6.1604-3.918,9.4552h-1.668C5.3787,92,0,97.3828,0,104s5.3787,12,11.9883,12h1.668
		c0.9296,3.2948,2.242,6.4588,3.918,9.4552l-1.18,1.1816c-4.6756,4.6736-4.6716,12.2832,0.008,16.9608
		c2.2732,2.2736,5.2852,3.5256,8.4844,3.5256c0.004,0,0.004,0,0.0076,0c3.1956-0.002,6.2032-1.25,8.4688-3.5156l1.1836-1.1836
		c2.9924,1.6776,6.1564,2.99,9.4533,3.9196v1.668c0,5.2032,3.3539,9.5972,8,11.252v36.5468C52,202.5312,57.3827,208,64,208h120
		c6.6171,0,12-5.4512,12-12.1504V12.1504C196,5.4512,190.6171,0,184,0z M48.7927,139.2792c-4.5232-0.918-8.7772-2.6816-12.6444-5.24
		c-0.672-0.4476-1.4412-0.666-2.2068-0.666c-1.0316,0-2.0548,0.3984-2.8284,1.1696l-3.406,3.4064
		c-0.758,0.756-1.758,1.174-2.8164,1.174c-0.004,0-0.004,0-0.004,0c-1.0624,0-2.0664-0.418-2.8284-1.1816
		c-1.5583-1.5588-1.5623-4.094-0.0076-5.6504l3.4024-3.4064c1.3436-1.3436,1.5549-3.4492,0.5076-5.0332
		c-2.5584-3.8692-4.324-8.1252-5.238-12.6464C20.3435,109.34,18.7031,108,16.8007,108h-4.8124C9.7891,108,8,106.2052,8,104
		s1.7891-4,3.9883-4h4.8124c1.9024,0,3.5428-1.34,3.922-3.2052c0.914-4.5212,2.6796-8.7772,5.238-12.6464
		c1.0473-1.584,0.836-3.6896-0.5076-5.0332l-3.4024-3.41c-0.758-0.754-1.172-1.754-1.172-2.8144
		c-0.0036-1.0628,0.418-2.0684,1.1796-2.8324c1.5548-1.5584,4.086-1.568,5.6488-0.0056l3.406,3.4044
		c1.3476,1.3456,3.4572,1.5524,5.0352,0.5036c3.8672-2.5584,8.1212-4.322,12.6444-5.24C50.66,68.3436,52,66.7032,52,64.8008v-4.8124
		C52,57.752,53.7579,56,56,56c2.2071,0,4,1.7892,4,3.9884v4.8124c0,1.9024,1.34,3.5428,3.2071,3.92
		c4.5232,0.918,8.7772,2.6816,12.6444,5.24c1.578,1.0488,3.6836,0.842,5.0352-0.5036l3.41-3.4084
		c0.754-0.756,1.754-1.172,2.8124-1.172c0,0,0,0,0.004,0c1.0624,0,2.0664,0.418,2.8284,1.1816
		c1.5585,1.5588,1.5625,4.094,0.0076,5.6488l-3.4064,3.406c-1.3436,1.3456-1.5584,3.4512-0.5076,5.0372
		c2.5624,3.8672,4.328,8.1212,5.242,12.6444C91.6563,98.66,93.2967,100,95.1991,100h4.8124c2.1992,0,3.9885,1.7948,3.9885,4
		s-1.7893,4-3.9885,4h-4.8124c-1.9024,0-3.5428,1.34-3.922,3.2052c-0.914,4.5232-2.6796,8.7772-5.242,12.6444
		c-1.0508,1.586-0.836,3.6916,0.5076,5.0372l3.4064,3.408c0.758,0.754,1.172,1.754,1.172,2.8144
		c0.004,1.0628-0.418,2.0684-1.1796,2.8324c-1.5588,1.5544-4.09,1.5644-5.6488,0.0056l-3.406-3.4044
		c-1.3516-1.3416-3.4572-1.5524-5.0352-0.5036c-3.8672,2.5584-8.1212,4.322-12.6444,5.24C61.34,139.6564,60,141.2968,60,143.1992
		v4.8124C60,150.248,58.2419,152,56,152c-2.2073,0-4-1.7892-4-3.9884v-4.8124C52,141.2968,50.66,139.6564,48.7927,139.2792z
		 M188,195.8496c0,2.2892-1.7929,4.1504-4,4.1504H64c-2.2073,0-4-1.8788-4-4.1896v-36.5468c4.6459-1.6544,8-6.0488,8-11.252v-1.668
		c3.2967-0.9296,6.4607-2.242,9.4531-3.9196l1.1836,1.1816c4.6756,4.6756,12.2852,4.668,16.9608-0.008
		c2.2736-2.2752,3.5276-5.2928,3.5236-8.492c0-3.1972-1.25-6.2052-3.5156-8.4688l-1.1836-1.1816
		c1.6796-2.9964,2.992-6.1584,3.9216-9.4552h1.668C106.6211,116,112,110.6172,112,104s-5.3789-12-11.9885-12h-1.668
		c-0.9296-3.2968-2.242-6.4588-3.9216-9.4552l1.1836-1.1816c4.6756-4.6736,4.6716-12.2832-0.008-16.9608
		c-2.2732-2.2736-5.2852-3.5256-8.4844-3.5256c-0.004,0-0.0076,0-0.0076,0c-3.1992,0.002-6.2072,1.252-8.4688,3.5156l-1.1836,1.1836
		c-2.9924-1.6776-6.1564-2.99-9.4531-3.9196v-1.668c0-5.2032-3.3541-9.5976-8-11.252V12.1348C60,9.8556,61.7927,8,64,8h120
		c2.2071,0,4,1.8612,4,4.1504V195.8496z"/>
	<rect x="72" y="20" width="106.1327" height="8"/>
	<rect x="128" y="116" width="50.1327" height="8"/>
	<rect x="104" y="52" width="74.1327" height="8"/>
	<rect x="104" y="148" width="74.1327" height="8"/>
	<rect x="128" y="84" width="50.1327" height="8"/>
	<rect x="72" y="180" width="106.1327" height="8"/>
</g>
</svg>
