<?xml version="1.0" ?><svg height="36" id="svg4488" version="1.1" width="36" xmlns="http://www.w3.org/2000/svg" xmlns:cc="http://creativecommons.org/ns#" xmlns:dc="http://purl.org/dc/elements/1.1/" xmlns:inkscape="http://www.inkscape.org/namespaces/inkscape" xmlns:rdf="http://www.w3.org/1999/02/22-rdf-syntax-ns#" xmlns:sodipodi="http://sodipodi.sourceforge.net/DTD/sodipodi-0.dtd" xmlns:svg="http://www.w3.org/2000/svg"><defs id="defs4490"/><g id="layer1" transform="translate(0,-1016.3622)"><g id="g5394" transform="translate(571.99936,-196.49862)"><g id="g5396" transform="translate(0,7.9999991)"><path d="m 531.21484,542.21094 0,1.02148 2.5,0 c 0.27613,3e-5 0.49997,0.22387 0.5,0.5 l 0,11.82617 c 0.005,0.0271 0.007,0.0545 0.008,0.082 l 0,4.14063 c 0,0.0288 -0.003,0.0575 -0.008,0.0859 l 0,7.34375 1,0 0,-4.5 0,-18 c -4.1e-4,-0.0118 -4.1e-4,-0.0235 0,-0.0352 l 0,-0.59961 0,-1.86523 -1.5,0 -2.5,0 z m 5,3 0,17 25,0 0,-17 -25,0 z m 16.49219,1 c 4.13621,0 7.49998,3.3638 7.5,7.5 -2e-5,4.1362 -3.36379,7.5 -7.5,7.5 -4.13622,0 -7.49999,-3.3638 -7.5,-7.5 10e-6,-4.1362 3.36378,-7.5 7.5,-7.5 z m -15.02734,0.002 c 0.0117,-4.1e-4 0.0234,-4.1e-4 0.0351,0 0.27614,0 0.5,0.22386 0.5,0.5 0,0.27614 -0.22386,0.5 -0.5,0.5 -0.27614,0 -0.5,-0.22386 -0.5,-0.5 -6.5e-4,-0.26298 0.20252,-0.4815 0.46485,-0.5 z m 22,0 c 0.0117,-4.1e-4 0.0234,-4.1e-4 0.0351,0 0.27614,0 0.5,0.22386 0.5,0.5 0,0.27614 -0.22386,0.5 -0.5,0.5 -0.27614,0 -0.5,-0.22386 -0.5,-0.5 -6.5e-4,-0.26298 0.20252,-0.4815 0.46485,-0.5 z m -27.53516,0.92773 0,3.14063 1.04102,0 0,-3.14063 -1.04102,0 z m 7.57031,0.0703 2,0 c 0.27613,3e-5 0.49997,0.22387 0.5,0.5 l 0,0.50195 1,0 0,1 -1,0 0,1 1,0 0,1 -1,0 0,0.49805 c -3e-5,0.27613 -0.22387,0.49997 -0.5,0.5 l -2,0 0,-0.5 -0.5,0 0,-0.49805 -1,0 0,-1 1,0 0,-1 -1,0 0,-1 1,0 0,-0.50195 c 3e-5,-0.27613 0.22387,-0.49997 0.5,-0.5 z m 12.99219,0 c -3.59578,0 -6.49999,2.9043 -6.5,6.5 10e-6,3.5958 2.90422,6.5 6.5,6.5 3.59577,0 6.49999,-2.9042 6.5,-6.5 -10e-6,-3.5957 -2.90423,-6.5 -6.5,-6.5 z m 0.71875,0.99414 c 0.30958,0 0.6219,0.012 0.89649,0.041 0.27459,0.0288 0.48855,0.0513 0.72851,0.16602 0.006,0.003 0.0116,0.007 0.0176,0.01 0.11395,0.0598 0.25437,0.20379 0.29687,0.37109 0.0426,0.1673 0.004,0.29972 -0.0312,0.38672 -0.0713,0.1751 -0.15444,0.25847 -0.24414,0.35937 -0.17933,0.2017 -0.40667,0.41496 -0.62695,0.66016 -0.22028,0.2451 -0.4275,0.51654 -0.54687,0.77344 -0.0839,0.18081 -0.11103,0.3446 -0.10743,0.50781 0.44802,0.22314 0.81568,0.57411 1.0625,1.00781 0.6003,-0.21377 1.15347,-0.32518 1.64453,-0.3164 l 0.002,0 c 0.61078,0.009 1.18598,0.20662 1.47265,0.70312 0.14925,0.2585 0.15255,0.45195 0.18165,0.71875 0.0292,0.2669 0.043,0.57321 0.043,0.88281 0,0.3095 -0.0142,0.62199 -0.043,0.89649 -0.0288,0.2746 -0.0495,0.48861 -0.16407,0.72851 -0.003,0.006 -0.005,0.0116 -0.008,0.0176 -0.0598,0.114 -0.2038,0.25488 -0.37109,0.29688 -0.16729,0.0431 -0.29922,0.005 -0.38672,-0.0312 -0.17507,-0.0713 -0.25851,-0.15414 -0.35938,-0.24415 -0.20175,-0.17929 -0.41694,-0.4086 -0.66211,-0.6289 -0.24517,-0.2203 -0.5146,-0.42552 -0.77148,-0.54492 -0.19157,-0.0895 -0.36421,-0.11544 -0.53711,-0.10547 -0.21588,0.41075 -0.53827,0.75288 -0.93555,0.99023 0.22003,0.61307 0.33266,1.17641 0.32617,1.67188 -0.008,0.6115 -0.20812,1.18575 -0.70507,1.47265 -0.25849,0.1496 -0.45191,0.1546 -0.71875,0.1836 -0.26683,0.029 -0.57324,0.041 -0.88282,0.041 -0.30958,0 -0.62003,-0.012 -0.89453,-0.041 -0.27451,-0.0288 -0.49069,-0.0515 -0.73047,-0.16602 -0.005,-0.003 -0.0106,-0.007 -0.0156,-0.01 -0.11395,-0.0598 -0.25643,-0.2038 -0.29883,-0.3711 -0.0424,-0.1673 -0.002,-0.29972 0.0332,-0.38672 0.0712,-0.1751 0.15444,-0.25847 0.24414,-0.35937 0.17933,-0.2018 0.40668,-0.41691 0.62696,-0.66211 0.22029,-0.2452 0.42555,-0.51458 0.54492,-0.77149 0.0836,-0.18009 0.11066,-0.34328 0.10742,-0.50585 -0.42386,-0.20902 -0.77964,-0.52992 -1.02734,-0.92969 -0.61878,0.22432 -1.18783,0.3402 -1.6875,0.33203 -0.61153,-0.008 -1.18574,-0.20623 -1.47266,-0.70313 -0.14929,-0.2585 -0.15449,-0.45195 -0.18359,-0.71875 -0.0292,-0.2669 -0.043,-0.57321 -0.043,-0.88281 0,-0.3096 0.0142,-0.61993 0.043,-0.89453 0.0288,-0.2745 0.0495,-0.49067 0.16406,-0.73047 0.003,-0.006 0.007,-0.0116 0.01,-0.0176 0.0146,-0.028 0.0362,-0.0277 0.0566,-0.0527 0.0501,-0.0909 0.1272,-0.16388 0.2207,-0.20899 l 0.004,0 c 0.0288,-0.0139 0.0589,-0.0252 0.0898,-0.0332 l -0.002,-0.002 c 0.0784,-0.0194 0.14743,-0.0264 0.20703,-0.0234 0.17866,0.009 0.28033,0.10005 0.36133,0.15625 0.10794,0.0754 0.19511,0.15705 0.29101,0.24805 0.19174,0.182 0.40585,0.40307 0.64063,0.60547 0.38947,0.33585 0.7861,0.56459 1.16211,0.57031 0.21493,-0.45906 0.56422,-0.83682 0.99804,-1.09375 -0.21834,-0.61039 -0.33067,-1.17243 -0.32422,-1.66602 0.008,-0.6115 0.20615,-1.18585 0.70313,-1.47265 0.2581,-0.1486 0.45198,-0.1546 0.71875,-0.1836 0.26678,-0.029 0.57314,-0.041 0.88281,-0.041 z m -13.21094,0.006 0,3 1,0 0,-1.99805 0,-1 0,-0.002 -1,0 z m 13.21094,0.99414 0,0.002 c -0.27969,0 -0.55743,0.0112 -0.77344,0.0352 -0.21601,0.024 -0.40362,0.0977 -0.32812,0.0547 -0.0805,0.0465 -0.19713,0.20909 -0.20313,0.62109 -0.004,0.32191 0.13387,0.81037 0.31446,1.32031 0.0904,-0.01 0.17854,-0.0273 0.27148,-0.0273 0.0755,0 0.14683,0.0148 0.2207,0.0215 0.0102,-0.23835 -0.01,-0.48549 0.082,-0.68359 0.18681,-0.402 0.45565,-0.73763 0.70898,-1.01953 0.11525,-0.1283 0.18181,-0.19473 0.2832,-0.29883 -0.18461,-0.013 -0.37239,-0.0254 -0.57617,-0.0254 z m -0.70703,3.02344 c -0.13994,2.7e-4 -0.29488,0.0268 -0.49609,0.0684 -0.43465,0.14667 -0.7741,0.48185 -0.92578,0.91406 -10e-4,0.007 0.003,0.0126 0.002,0.0195 -0.0966,0.48345 -0.0567,0.66535 -0.0156,0.93555 0.14296,0.45304 0.48878,0.80688 0.9375,0.95898 0.30173,0.078 0.57133,0.0794 0.94727,0.008 0.45073,-0.14455 0.80226,-0.49168 0.95312,-0.93945 0.0381,-0.36965 0.077,-0.67896 0.004,-0.92578 -0.004,-0.0137 -10e-4,-0.0272 -0.004,-0.041 -0.14826,-0.43756 -0.48879,-0.77826 -0.92578,-0.92773 -0.18863,-0.0445 -0.33329,-0.0706 -0.47656,-0.0703 z m -4.49219,0.23632 c -0.0132,0.1861 -0.0273,0.37613 -0.0273,0.58204 0,0.27969 0.0135,0.55743 0.0371,0.77343 0.0236,0.216 0.0986,0.40413 0.0547,0.32813 0.0465,0.0805 0.20903,0.19312 0.62109,0.20312 0.32346,0.004 0.81588,-0.13511 1.32812,-0.3164 -0.0142,-0.1073 -0.0332,-0.21321 -0.0332,-0.32422 0,-0.0561 0.0119,-0.10882 0.0156,-0.16406 -0.62415,-0.0776 -1.18846,-0.35117 -1.58985,-0.69727 -0.16748,-0.1444 -0.27642,-0.25817 -0.40625,-0.38477 z m 8.27344,0.70704 c -0.31816,-0.006 -0.80613,0.13322 -1.31641,0.31445 0.007,0.0752 0.0234,0.14769 0.0234,0.22461 0,0.0916 -0.0176,0.17843 -0.0273,0.26758 0.23971,0.0117 0.48983,-0.0107 0.68945,0.082 0.40201,0.1869 0.73759,0.45568 1.01953,0.70898 0.12807,0.1151 0.19475,0.1819 0.29883,0.2832 0.0129,-0.1846 0.0273,-0.37247 0.0273,-0.57617 0,-0.2798 -0.0135,-0.55733 -0.0371,-0.77344 -0.0236,-0.21598 -0.0985,-0.40412 -0.0547,-0.32812 -0.0464,-0.0804 -0.20903,-0.19313 -0.6211,-0.20312 l -0.002,0 z m -3.82812,0.041 c 0.0118,-4.1e-4 0.0235,-4.1e-4 0.0352,0 0.27614,0 0.5,0.22386 0.5,0.5 0,0.27614 -0.22386,0.5 -0.5,0.5 -0.27614,0 -0.5,-0.22386 -0.5,-0.5 -6.5e-4,-0.26298 0.20251,-0.4815 0.46485,-0.5 z m -12.95704,1.99805 2,0 c 0.27613,3e-5 0.49997,0.22387 0.5,0.5 l 0,0.50195 1,0 0,1 -1,0 0,1 1,0 0,1 -1,0 0,0.49805 c -3e-5,0.27613 -0.22387,0.49997 -0.5,0.5 l -2,0 0,-0.5 -0.5,0 0,-0.49805 -1,0 0,-1 1,0 0,-1 -1,0 0,-1 1,0 0,-0.50195 c 3e-5,-0.27613 0.22387,-0.49997 0.5,-0.5 z m -7.57031,0.92968 0,3.14063 1.07031,0 0,-3.14063 -1.07031,0 z m 20.8418,0.043 c -0.0929,0.0106 -0.18371,0.0274 -0.2793,0.0274 -0.0729,0 -0.14154,-0.0153 -0.21289,-0.0215 -0.0105,0.23905 0.0103,0.48678 -0.082,0.68555 -0.18681,0.402 -0.45371,0.73568 -0.70703,1.01758 -0.11468,0.1277 -0.18221,0.19503 -0.2832,0.29883 0.18409,0.013 0.3711,0.0254 0.57421,0.0254 0.27979,0 0.55932,-0.0112 0.77539,-0.0352 0.21607,-0.024 0.40208,-0.0987 0.32618,-0.0547 0.0805,-0.0465 0.19907,-0.20899 0.20507,-0.62109 0.004,-0.32242 -0.13539,-0.81143 -0.3164,-1.32227 z m -12.77149,0.0274 0,3 1,0 0,-2.99805 0,-0.002 -1,0 z m -2.53515,4.00195 c 0.0117,-4.1e-4 0.0234,-4.1e-4 0.0351,0 0.27614,0 0.5,0.22386 0.5,0.5 0,0.27614 -0.22386,0.5 -0.5,0.5 -0.27614,0 -0.5,-0.22386 -0.5,-0.5 -6.5e-4,-0.26298 0.20252,-0.4815 0.46485,-0.5 z m 22,0 c 0.0117,-4.1e-4 0.0234,-4.1e-4 0.0351,0 0.27614,0 0.5,0.22386 0.5,0.5 0,0.27614 -0.22386,0.5 -0.5,0.5 -0.27614,0 -0.5,-0.22386 -0.5,-0.5 -6.5e-4,-0.26298 0.20252,-0.4815 0.46485,-0.5 z m -17.46485,2.99805 0,3 1,0 0,-1.99805 1,0 0,1.99805 1,0 0,-1.99805 1,0 0,1.99805 1,0 0,-1.99805 1,0 0,1.99805 1,0 0,-1.99805 1,0 0,1.99805 1,0 0,-1.99805 1,0 0,1.99805 1,0 0,-1.99805 1,0 0,1.99805 1,0 0,-1.99805 1,0 0,1.99805 1.00782,0 0,-3 -15.00782,0 z" id="rect5398" style="font-size:medium;font-style:normal;font-variant:normal;font-weight:normal;font-stretch:normal;text-indent:0;text-align:start;text-decoration:none;line-height:normal;letter-spacing:normal;word-spacing:normal;text-transform:none;direction:ltr;block-progression:tb;writing-mode:lr-tb;text-anchor:start;baseline-shift:baseline;color:#000000;fill:#000000;fill-opacity:1;fill-rule:nonzero;stroke:none;visibility:visible;display:inline;overflow:visible;enable-background:accumulate;font-family:sans-serif" transform="translate(-1100.2142,668.14997)"/></g><path d="m -568.9922,1237.3613 0,1 2,0 0,-1 z" id="path5457" style="font-size:medium;font-style:normal;font-variant:normal;font-weight:normal;font-stretch:normal;text-indent:0;text-align:start;text-decoration:none;line-height:normal;letter-spacing:normal;word-spacing:normal;text-transform:none;direction:ltr;block-progression:tb;writing-mode:lr-tb;text-anchor:start;baseline-shift:baseline;color:#000000;fill:#000000;fill-opacity:1;fill-rule:evenodd;stroke:none;visibility:visible;display:inline;overflow:visible;enable-background:accumulate;font-family:sans-serif"/><path d="m -568.9922,1229.3613 0,1 2,0 0,-1 z" id="path5459" style="font-size:medium;font-style:normal;font-variant:normal;font-weight:normal;font-stretch:normal;text-indent:0;text-align:start;text-decoration:none;line-height:normal;letter-spacing:normal;word-spacing:normal;text-transform:none;direction:ltr;block-progression:tb;writing-mode:lr-tb;text-anchor:start;baseline-shift:baseline;color:#000000;fill:#000000;fill-opacity:1;fill-rule:evenodd;stroke:none;visibility:visible;display:inline;overflow:visible;enable-background:accumulate;font-family:sans-serif"/></g></g></svg>