<?xml version="1.0" ?><svg height="36" id="svg6390" version="1.1" width="36" xmlns="http://www.w3.org/2000/svg" xmlns:cc="http://creativecommons.org/ns#" xmlns:dc="http://purl.org/dc/elements/1.1/" xmlns:inkscape="http://www.inkscape.org/namespaces/inkscape" xmlns:rdf="http://www.w3.org/1999/02/22-rdf-syntax-ns#" xmlns:sodipodi="http://sodipodi.sourceforge.net/DTD/sodipodi-0.dtd" xmlns:svg="http://www.w3.org/2000/svg"><defs id="defs6392"/><g id="layer1" transform="translate(0,-1016.3622)"><path d="m 16,1019.3622 c -1.0994,0 -2,0.9007 -2,2 l 0,3 1,0 0,-3 c 0,-0.5626 0.4374,-1 1,-1 l 5,0 c 0.5626,0 1,0.4374 1,1 l 0,9.4375 c -4e-4,0.012 -4e-4,0.051 0,0.062 l 0,8 0,9.5 c 0,1.0994 0.9006,2 2,2 l 3,0 c 1.0994,0 2,-0.9006 2,-2 l 0,-16 -1,0 0,16 c 0,0.5627 -0.4374,1 -1,1 l -3,0 c -0.5626,0 -1,-0.4373 -1,-1 l 0,-9.4687 c 4e-4,-0.012 4e-4,-0.019 0,-0.031 l 0,-8 0,-9.5 c 0,-1.0994 -0.9006,-2 -2,-2 l -5,0 z m 10,2 0,3 5,0 0,-3 -5,0 z m 1,1 1,0 0,1 -1,0 0,-1 z m 2,0 1,0 0,1 -1,0 0,-1 z m -16,3 0,1 3,0 0,-1 -3,0 z m 12,0 0,4 0.75,0 0.25,0 0.6562,0 1.8438,0 1.8438,0 0.125,0 0.031,0 0.75,0 0.75,0 0,-4 -7,0 z m -14,2 0,2 7,0 0,-2 -1.5,0 -4,0 -1.5,0 z m -6.4375,3 c -0.3202,0 -0.5625,0.2422 -0.5625,0.5625 l 0,2.4375 16,0 0,-2.4375 c 0,-0.3203 -0.2423,-0.5625 -0.5625,-0.5625 l -14.875,0 z m 22.4375,0 0,1 3,0 0,-1 -1.5,0 -1.5,0 z m -11.5,1 c 0.2761,0 0.5,0.2239 0.5,0.5 0,0.2761 -0.2239,0.5 -0.5,0.5 -0.2761,0 -0.5,-0.2239 -0.5,-0.5 0,-0.2761 0.2239,-0.5 0.5,-0.5 z m 2,0 c 0.2761,0 0.5,0.2239 0.5,0.5 0,0.2761 -0.2239,0.5 -0.5,0.5 -0.2761,0 -0.5,-0.2239 -0.5,-0.5 0,-0.2761 0.2239,-0.5 0.5,-0.5 z m -13.5,3 0,15.4375 c 0,0.3203 0.2423,0.5625 0.5625,0.5625 l 14.875,0 c 0.3202,0 0.5625,-0.2422 0.5625,-0.5625 l 0,-15.4375 -16,0 z m 8,3 1.75,1.8125 -0.7188,0.6875 -0.5312,-0.5312 0,4.0312 1.5,0 0,-1 -0.4688,0 0,-1.5 0,-0.5 1.9688,0 0,2 -0.5,0 0,1.5 -0.5,0.5 -2,0 0,1.9688 c 0.6007,0.2137 1.0312,0.7968 1.0312,1.4687 0,0.848 -0.6839,1.5625 -1.5312,1.5625 -0.8472,-10e-5 -1.5313,-0.7145 -1.5312,-1.5625 -10e-5,-0.6718 0.4305,-1.2549 1.0312,-1.4687 l 0,-0.9688 -2,0 -0.5,-0.5 0,-1.625 c -0.2988,-0.1777 -0.5,-0.5087 -0.5,-0.875 0,-0.5467 0.4471,-1 1,-1 0.5529,0 1,0.4533 1,1 0,0.3579 -0.2126,0.6634 -0.5,0.8438 l 0,1.1562 1.5,0 0,-5.0312 -0.5,0.5312 -0.75,-0.6875 1.75,-1.8125 z m 0,9.875 c -0.2955,0 -0.5313,0.2438 -0.5312,0.5625 -2e-4,0.3187 0.2357,0.5625 0.5312,0.5625 0.2955,0 0.5312,-0.2438 0.5312,-0.5625 0,-0.3187 -0.2357,-0.5625 -0.5312,-0.5625 z" id="rect6172" style="font-size:medium;font-style:normal;font-variant:normal;font-weight:normal;font-stretch:normal;text-indent:0;text-align:start;text-decoration:none;line-height:normal;letter-spacing:normal;word-spacing:normal;text-transform:none;direction:ltr;block-progression:tb;writing-mode:lr-tb;text-anchor:start;baseline-shift:baseline;color:#000000;fill:#000000;fill-opacity:1;fill-rule:evenodd;stroke:none;visibility:visible;display:inline;overflow:visible;enable-background:accumulate;font-family:sans-serif"/></g></svg>