<?xml version="1.0" ?><svg height="74.666664" id="svg9" version="1.1" viewBox="0 0 53.333599 74.666664" width="53.333599" xmlns="http://www.w3.org/2000/svg" xmlns:svg="http://www.w3.org/2000/svg"><defs id="defs13"><clipPath clipPathUnits="userSpaceOnUse" id="clipPath611"><path d="M 0,64 H 64 V 0 H 0 Z" id="path609"/></clipPath></defs><g id="g603" transform="matrix(1.3333333,0,0,-1.3333333,-15.999733,79.999998)"><g id="g605"><g clip-path="url(#clipPath611)" id="g607"><g id="g613" transform="translate(46.7598,60)"><path d="m 0,0 h -29.52 c -2.89,0 -5.24,-2.35 -5.24,-5.24 V -35 c 0,0.55 0.45,1 1,1 h 1 v 28.76 c 0,1.79 1.45,3.24 3.24,3.24 L 0,-2 c 1.79,0 3.24,-1.45 3.24,-3.24 V -48 h 1 c 0.55,0 1,-0.45 1,-1 V -5.24 C 5.24,-2.35 2.89,0 0,0" id="path615" style="fill:#231f20;fill-opacity:1;fill-rule:nonzero;stroke:none"/></g><g id="g617" transform="translate(23,7)"><path d="m 0,0 h -6 c -0.55,0 -1,0.45 -1,1 0,0.55 0.45,1 1,1 H 0 C 0.55,2 1,1.55 1,1 1,0.45 0.55,0 0,0 m 28,5 h -38 c -0.55,0 -1,-0.45 -1,-1 V 2.24 C -11,-0.65 -8.65,-3 -5.76,-3 h 20.7 v 4 c 0,0.55 0.45,1 1,1 0.55,0 1,-0.45 1,-1 V -3 H 18 v 4 c 0,0.55 0.45,1 1,1 0.55,0 1,-0.45 1,-1 v -4 h 1.06 v 4 c 0,0.55 0.45,1 1,1 0.55,0 1,-0.45 1,-1 v -4 h 0.7 C 26.65,-3 29,-0.65 29,2.24 V 4 c 0,0.55 -0.45,1 -1,1" id="path619" style="fill:#231f20;fill-opacity:1;fill-rule:nonzero;stroke:none"/></g><g id="g621" transform="translate(32,31.4404)"><path d="m 0,0 c -3.62,0 -6.56,2.939 -6.56,6.56 0,3.62 2.94,6.559 6.56,6.559 3.62,0 6.56,-2.939 6.56,-6.559 C 6.56,2.939 3.62,0 0,0 m 0,21.56 c -8.27,0 -15,-6.731 -15,-15 0,-5.14 2.55,-9.781 6.76,-12.531 0.54,0.231 1.1,0.491 1.68,0.8 0.15,0.08 0.3,0.16 0.45,0.25 0.4,0.221 0.79,0.45 1.17,0.7 0.38,0.241 0.75,0.491 1.12,0.761 0.2,0.149 0.41,0.3 0.61,0.47 0.05,0.03 0.11,0.069 0.16,0.12 0.1,0.08 0.21,0.16 0.31,0.25 0.35,0.279 0.69,0.58 1.03,0.89 0.05,0.049 0.1,0.089 0.16,0.12 0.04,0.019 0.08,0.049 0.12,0.059 0.04,0.021 0.09,0.04 0.14,0.051 0.02,0.01 0.03,0.01 0.04,0.01 0.14,0.04 0.27,0.04 0.4,0.019 0.21,-0.029 0.4,-0.12 0.56,-0.279 0.08,-0.08 0.14,-0.181 0.19,-0.28 0.03,-0.071 0.05,-0.141 0.06,-0.21 0.02,-0.071 0.02,-0.13 0.02,-0.2 0.01,-0.09 0,-0.17 -0.03,-0.25 V -2.7 c -0.01,-0.08 -0.05,-0.16 -0.1,-0.24 -0.01,-0.01 -0.01,-0.031 -0.02,-0.04 l -0.07,-0.111 v -0.01 C -0.25,-3.11 -0.26,-3.12 -0.27,-3.141 -0.3,-3.2 -0.35,-3.261 -0.39,-3.341 -0.44,-3.41 -0.48,-3.48 -0.53,-3.561 -0.78,-3.96 -1.15,-4.561 -1.57,-5.29 -1.65,-5.431 -1.73,-5.57 -1.81,-5.71 -1.91,-5.891 -2.02,-6.08 -2.12,-6.271 -2.33,-6.641 -2.54,-7.03 -2.76,-7.431 -2.88,-7.66 -3,-7.891 -3.11,-8.11 -2.09,-8.33 -1.04,-8.44 0,-8.44 c 8.27,0 15,6.73 15,15 0,8.269 -6.73,15 -15,15" id="path623" style="fill:#231f20;fill-opacity:1;fill-rule:nonzero;stroke:none"/></g><g id="g625" transform="translate(16,12.5)"><path d="M 0,0 C -0.82,0 -1.5,0.68 -1.5,1.5 -1.5,2.32 -0.82,3 0,3 0.82,3 1.5,2.32 1.5,1.5 1.5,0.68 0.82,0 0,0 M 11.98,3.79 C 11.97,3.87 11.94,3.95 11.9,4.03 11.88,4.1 11.83,4.17 11.78,4.23 11.75,4.27 11.72,4.31 11.69,4.34 11.65,4.38 11.6,4.42 11.54,4.46 11.49,4.49 11.44,4.52 11.38,4.54 11.33,4.56 11.28,4.58 11.22,4.59 11.1,4.62 10.96,4.62 10.83,4.6 10.66,4.57 10.5,4.55 10.34,4.52 10.02,4.48 9.73,4.44 9.45,4.42 9.33,4.41 9.21,4.4 9.1,4.39 H 9.05 9.03 C 8.76,4.37 8.5,4.36 8.25,4.36 8.1,4.36 7.96,4.36 7.82,4.37 7.7,4.37 7.59,4.38 7.48,4.39 7.09,4.41 6.74,4.46 6.41,4.54 6.23,4.58 6.06,4.62 5.9,4.68 5.26,4.89 4.74,5.21 4.35,5.64 3.39,6.68 3.27,8.26 3.4,9.6 c 0.03,0.25 0.06,0.5 0.1,0.74 0.09,0.57 0.22,1.06 0.3,1.38 0.01,0.05 0.03,0.1 0.05,0.14 0.01,0.06 0.03,0.11 0.05,0.16 0.01,0.04 0.02,0.08 0.03,0.1 0.01,0.03 0.01,0.04 0.01,0.04 0.06,0.16 0.07,0.33 0.05,0.49 -0.02,0.1 -0.05,0.2 -0.09,0.29 C 3.86,13.03 3.8,13.11 3.73,13.18 3.68,13.24 3.62,13.29 3.55,13.33 3.48,13.38 3.41,13.41 3.34,13.44 3.23,13.48 3.12,13.5 3,13.5 h -6 c -0.55,0 -1,-0.45 -1,-1 v -14 c 0,0.55 0.45,1 1,1 h 15 v 4.11 c 0,0.06 -0.01,0.12 -0.02,0.18" id="path627" style="fill:#231f20;fill-opacity:1;fill-rule:nonzero;stroke:none"/></g><g id="g629" transform="translate(19.8501,24.3604)"><path d="M 0,0 C -0.02,-0.04 -0.03,-0.091 -0.04,-0.141 H -0.05 C -0.04,-0.091 -0.02,-0.04 0,0" id="path631" style="fill:#231f20;fill-opacity:1;fill-rule:nonzero;stroke:none"/></g><g id="g633" transform="translate(49,14)"><path d="m 0,0 c 0,-0.553 -0.448,-1 -1,-1 -0.552,0 -1,0.447 -1,1 0,0.553 0.448,1 1,1 0.552,0 1,-0.447 1,-1" id="path635" style="fill:#231f20;fill-opacity:1;fill-rule:nonzero;stroke:none"/></g><g id="g637" transform="translate(49,55)"><path d="m 0,0 c 0,-0.553 -0.448,-1 -1,-1 -0.552,0 -1,0.447 -1,1 0,0.553 0.448,1 1,1 0.552,0 1,-0.447 1,-1" id="path639" style="fill:#231f20;fill-opacity:1;fill-rule:nonzero;stroke:none"/></g><g id="g641" transform="translate(17,55)"><path d="m 0,0 c 0,-0.553 -0.448,-1 -1,-1 -0.552,0 -1,0.447 -1,1 0,0.553 0.448,1 1,1 0.552,0 1,-0.447 1,-1" id="path643" style="fill:#231f20;fill-opacity:1;fill-rule:nonzero;stroke:none"/></g><g id="g645" transform="translate(31.98,29)"><path d="m 0,0 c 0,-0.08 -0.01,-0.17 -0.03,-0.25 v -0.01 c -0.03,-0.08 -0.06,-0.16 -0.1,-0.24 -0.01,-0.01 -0.01,-0.03 -0.02,-0.04 l -0.07,-0.11 v -0.01 c -0.01,-0.01 -0.02,-0.02 -0.03,-0.04 -0.03,-0.06 -0.08,-0.12 -0.12,-0.2 -0.05,-0.07 -0.09,-0.14 -0.14,-0.22 -0.25,-0.4 -0.62,-1 -1.04,-1.73 -0.08,-0.14 -0.16,-0.28 -0.24,-0.42 -0.1,-0.18 -0.21,-0.37 -0.31,-0.56 -0.21,-0.37 -0.42,-0.76 -0.64,-1.16 -0.12,-0.23 -0.24,-0.46 -0.35,-0.68 -0.74,-1.44 -1.34,-2.78 -1.8,-3.98 -0.13,-0.33 -0.24,-0.66 -0.35,-0.97 -0.16,-0.48 -0.3,-0.93 -0.4,-1.36 -0.32,-0.04 -0.61,-0.08 -0.89,-0.1 -0.12,-0.01 -0.24,-0.02 -0.35,-0.03 h -0.05 -0.02 c -0.27,-0.02 -0.53,-0.03 -0.78,-0.03 0.43,2.14 1.51,4.85 3.23,8.09 0.04,0.09 0.09,0.17 0.14,0.26 -0.41,-0.25 -0.82,-0.48 -1.24,-0.7 -3.05,-1.62 -5.7,-2.2 -6.98,-2.41 0.03,0.25 0.06,0.5 0.1,0.74 0.09,0.57 0.22,1.06 0.3,1.38 h 0.01 c 0.12,0.02 0.24,0.05 0.37,0.08 0.36,0.08 0.76,0.18 1.21,0.31 0.13,0.04 0.26,0.08 0.4,0.13 0.6,0.19 1.26,0.43 1.97,0.73 0.54,0.23 1.1,0.49 1.68,0.8 0.15,0.08 0.3,0.16 0.45,0.25 0.4,0.22 0.79,0.45 1.17,0.7 0.38,0.24 0.75,0.49 1.12,0.76 0.2,0.15 0.41,0.3 0.61,0.47 0.05,0.03 0.11,0.07 0.16,0.12 0.1,0.08 0.21,0.16 0.31,0.25 0.35,0.28 0.69,0.58 1.03,0.89 0.05,0.05 0.1,0.09 0.16,0.12 0.04,0.02 0.08,0.05 0.12,0.06 0.04,0.02 0.09,0.04 0.14,0.05 0.02,0.01 0.03,0.01 0.04,0.01 0.14,0.04 0.27,0.04 0.4,0.02 0.09,-0.02 0.18,-0.05 0.27,-0.1 C -0.49,0.84 -0.43,0.8 -0.37,0.75 -0.19,0.61 -0.07,0.41 -0.02,0.2 0,0.13 0,0.07 0,0" id="path647" style="fill:#231f20;fill-opacity:1;fill-rule:nonzero;stroke:none"/></g><g id="g649" transform="translate(31.96,29.2002)"><path d="M 0,0 C -0.05,0.21 -0.17,0.41 -0.35,0.55 -0.41,0.6 -0.47,0.64 -0.54,0.67 -0.63,0.72 -0.72,0.75 -0.81,0.77 -0.6,0.74 -0.41,0.649 -0.25,0.49 -0.17,0.41 -0.11,0.31 -0.06,0.21 -0.03,0.14 -0.01,0.069 0,0" id="path651" style="fill:#231f20;fill-opacity:1;fill-rule:nonzero;stroke:none"/></g><g id="g653" transform="translate(36.6377,38)"><path d="m 0,0 c 0,-2.56 -2.078,-4.638 -4.638,-4.638 -2.56,0 -4.637,2.078 -4.637,4.638 0,2.56 2.077,4.638 4.637,4.638 C -2.078,4.638 0,2.56 0,0" id="path655" style="fill:#231f20;fill-opacity:1;fill-rule:nonzero;stroke:none"/></g></g></g></g></svg>