<svg id="Layer_1" data-name="Layer 1" xmlns="http://www.w3.org/2000/svg" viewBox="0 0 96 96"><path d="M69.23,81.26a5.36,5.36,0,0,1-1-.09,110.45,110.45,0,0,0-40.53,0,5.08,5.08,0,0,1-5.37-2.45,5,5,0,0,1,.5-5.76l8.7-10.39a1,1,0,0,1,1.4-.12,1,1,0,0,1,.13,1.41L24.4,74.24a3,3,0,0,0-.3,3.47,3.07,3.07,0,0,0,3.28,1.5,112.22,112.22,0,0,1,41.26,0,3.06,3.06,0,0,0,3.26-1.49,3,3,0,0,0-.3-3.48L62.9,63.86A1,1,0,0,1,63,62.45a1,1,0,0,1,1.4.12L73.13,73a5,5,0,0,1,.5,5.77A5.07,5.07,0,0,1,69.23,81.26Z"/><path d="M28.68,60.93a1,1,0,0,1-.63-1.78L43,46.83a1,1,0,1,1,1.27,1.55l-15,12.32A1,1,0,0,1,28.68,60.93Z"/><path d="M43.8,37.54a1,1,0,0,1-.63-.22L28.17,25a1,1,0,1,1,1.27-1.54l15,12.34a1,1,0,0,1,.13,1.41A1,1,0,0,1,43.8,37.54Z"/><path d="M82,94H14a5,5,0,0,1-5-5V7a5,5,0,0,1,5-5H82a5,5,0,0,1,5,5V89A5,5,0,0,1,82,94ZM14,4a3,3,0,0,0-3,3V89a3,3,0,0,0,3,3H82a3,3,0,0,0,3-3V7a3,3,0,0,0-3-3Z"/><path d="M17.84,15.22a4,4,0,1,1,4-4A4,4,0,0,1,17.84,15.22Zm0-6a2,2,0,1,0,2,2A2,2,0,0,0,17.84,9.22Z"/><path d="M78.16,15.22a4,4,0,1,1,4-4A4,4,0,0,1,78.16,15.22Zm0-6a2,2,0,1,0,2,2A2,2,0,0,0,78.16,9.22Z"/><path d="M17.84,88.78a4,4,0,1,1,4-4A4,4,0,0,1,17.84,88.78Zm0-6a2,2,0,1,0,2,2A2,2,0,0,0,17.84,82.78Z"/><path d="M78.16,88.78a4,4,0,1,1,4-4A4,4,0,0,1,78.16,88.78Zm0-6a2,2,0,1,0,2,2A2,2,0,0,0,78.16,82.78Z"/><path d="M48,69.4a27.27,27.27,0,1,1,12.14-2.85,1,1,0,1,1-.89-1.79A25.27,25.27,0,1,0,48,67.4a25.7,25.7,0,0,0,5.54-.61A1,1,0,1,1,54,68.74,27,27,0,0,1,48,69.4Z"/><path d="M48,50.12a8,8,0,1,1,8-8A8,8,0,0,1,48,50.12Zm0-14a6,6,0,1,0,6,6A6,6,0,0,0,48,36.14Z"/><path d="M58,73.7a4.45,4.45,0,0,1-1.6-.3,4.4,4.4,0,0,1-2.5-2.52L50.3,61.52a3.43,3.43,0,0,1,6.12-3L61.7,67A4.38,4.38,0,0,1,58,73.7ZM53.51,58.86a1.43,1.43,0,0,0-1.34,1.94l3.57,9.37A2.39,2.39,0,0,0,59,71.46h0a2.39,2.39,0,0,0,1-3.41l-5.28-8.51A1.41,1.41,0,0,0,53.51,58.86Z"/></svg>