<?xml version="1.0" ?><!DOCTYPE svg  PUBLIC '-//W3C//DTD SVG 1.1//EN'  'http://www.w3.org/Graphics/SVG/1.1/DTD/svg11.dtd'><svg height="143px" style="enable-background:new 0 0 84 143;" version="1.1" viewBox="0 0 84 143" width="84px" xml:space="preserve" xmlns="http://www.w3.org/2000/svg" xmlns:xlink="http://www.w3.org/1999/xlink"><style type="text/css">
<![CDATA[
	.st0{fill:#EF3E42;}
	.st1{fill:#FFFFFF;}
	.st2{fill:none;}
	.st3{fill-rule:evenodd;clip-rule:evenodd;fill:#FFFFFF;}
]]>
</style><defs/><path d="M17.1,64.5l0,17c1,9.4,11.1,11,16.3,10.5H35v9.5c-5.5,1-9.7,5.7-9.7,11.5c0,6.4,5.2,11.7,11.7,11.7  c6.4,0,11.7-5.2,11.7-11.7c0-5.8-4.2-10.5-9.6-11.5V75.1h3.1c0.2,0,7.7,0.3,12.3-4.2c2.4-2.3,3.6-5.4,3.6-9.1v-5.1h5v-14h-14v14h5  v5.1c0,2.6-0.8,4.7-2.4,6.2c-3.4,3.3-9.4,3.1-9.5,3.1l-3.2,0V35h7.5L37,17.4L27.4,35H35v53l-1.9,0c-0.4,0-11.2,0.9-12.1-6.9V64.5  c3.6-0.9,6.3-4.1,6.3-8c0-4.5-3.7-8.2-8.2-8.2c-4.6,0-8.2,3.7-8.2,8.2C10.9,60.4,13.5,63.6,17.1,64.5L17.1,64.5z"/><rect class="st2" height="143" id="_x3C_Slice_x3E__100_" width="84"/></svg>