<?xml version="1.0" ?><!DOCTYPE svg  PUBLIC '-//W3C//DTD SVG 1.1//EN'  'http://www.w3.org/Graphics/SVG/1.1/DTD/svg11.dtd'><svg height="100%" style="fill-rule:evenodd;clip-rule:evenodd;stroke-linejoin:round;stroke-miterlimit:2;" version="1.1" viewBox="0 0 32 32" width="100%" xml:space="preserve" xmlns="http://www.w3.org/2000/svg" xmlns:serif="http://www.serif.com/" xmlns:xlink="http://www.w3.org/1999/xlink"><path d="M9.019,11.987l-1.023,0c-0.796,0 -1.559,0.316 -2.122,0.879c-0.562,0.562 -0.878,1.325 -0.878,2.121l-0,7.997c-0,4.427 3.588,8.016 8.016,8.016c1.938,-0 4.042,-0 5.98,-0c4.427,-0 8.016,-3.589 8.016,-8.016l0,-7.997c0,-0.796 -0.316,-1.559 -0.878,-2.121c-0.563,-0.563 -1.326,-0.879 -2.122,-0.879l-0.996,0l0,-8.011c0,-1.657 -1.343,-3 -3,-3c-2.218,-0 -5.775,-0 -7.993,-0c-1.657,-0 -3,1.343 -3,3l0,8.011Zm15.989,3l0,7.997c0,3.323 -2.693,6.016 -6.016,6.016c-1.938,-0 -4.042,-0 -5.98,-0c-3.323,-0 -6.016,-2.693 -6.016,-6.016c-0,-0 -0,-7.997 -0,-7.997c-0,-0.265 0.105,-0.52 0.292,-0.707c0.188,-0.188 0.442,-0.293 0.708,-0.293l16.012,0c0.265,0 0.52,0.105 0.707,0.293c0.188,0.187 0.293,0.442 0.293,0.707Zm-3.996,-3l0,-8.011c0,-0.553 -0.447,-1 -1,-1c0,-0 -7.993,-0 -7.993,-0c-0.552,-0 -1,0.447 -1,1l0,8.011l9.993,0Z"/><path d="M13.011,5.979l-0,3.021c-0,0.552 0.448,1 1,1c0.552,-0 1,-0.448 1,-1l-0,-3.021c-0,-0.552 -0.448,-1 -1,-1c-0.552,0 -1,0.448 -1,1Z"/><path d="M17.012,5.979l0,3.021c0,0.552 0.448,1 1,1c0.552,0 1,-0.448 1,-1l0,-3.021c0,-0.552 -0.448,-1 -1,-1c-0.552,0 -1,0.448 -1,1Z"/><g id="Icon"/></svg>